# xmcd
#
# Track frame offsets: 
#        150
#        19673
#        40002
#        56755
#        83087
#        102952
#        124641
#        144968
#        164834
#        182561
#        204728
#        226368
#        245663
#        265112
#
# Disc length: 3833 seconds
#
# Revision: 0
# Processed by: cddbd v1.5.2PL0 Copyright (c) Steve Scherf et al.
# Submitted via: ExactAudioCopy v1.3
#
DISCID=bc0ef70e
DTITLE=童丽 - 追梦人
DYEAR=2016
DGENRE=Pop
TTITLE0=风含情水含笑
TTITLE1=追梦人
TTITLE2=凤凰姑娘
TTITLE3=矜持
TTITLE4=在水一方
TTITLE5=这一瞬间
TTITLE6=杏花溪之恋
TTITLE7=你在我心中
TTITLE8=天才白痴往日情
TTITLE9=天涯
TTITLE10=初次尝到寂寞
TTITLE11=庭院深深
TTITLE12=不要笑我痴
TTITLE13=梦中的情话
EXTD=
EXTT0=
EXTT1=
EXTT2=
EXTT3=
EXTT4=
EXTT5=
EXTT6=
EXTT7=
EXTT8=
EXTT9=
EXTT10=
EXTT11=
EXTT12=
EXTT13=
PLAYORDER=
